<mxfile host="app.diagrams.net" agent="Mozilla/5.0 (Windows NT 10.0; Win64; x64) AppleWebKit/537.36 (KHTML, like Gecko) Chrome/135.0.0.0 Safari/537.36" version="26.2.13">
  <diagram name="第 1 页" id="2BHJ6eeiq_Yv8pMzbxQ_">
    <mxGraphModel dx="704" dy="419" grid="1" gridSize="10" guides="1" tooltips="1" connect="1" arrows="1" fold="1" page="1" pageScale="1" pageWidth="827" pageHeight="1169" math="0" shadow="0">
      <root>
        <mxCell id="0" />
        <mxCell id="1" parent="0" />
        <mxCell id="BVc9t5YBlYApv27JJ1SE-1" value="Server" style="shape=umlLifeline;perimeter=lifelinePerimeter;whiteSpace=wrap;container=1;dropTarget=0;collapsible=0;recursiveResize=0;outlineConnect=0;portConstraint=eastwest;newEdgeStyle={&quot;edgeStyle&quot;:&quot;elbowEdgeStyle&quot;,&quot;elbow&quot;:&quot;vertical&quot;,&quot;curved&quot;:0,&quot;rounded&quot;:0};size=65;" vertex="1" parent="1">
          <mxGeometry x="20" y="20" width="150" height="540" as="geometry" />
        </mxCell>
        <mxCell id="BVc9t5YBlYApv27JJ1SE-2" value="ChargingPile" style="shape=umlLifeline;perimeter=lifelinePerimeter;whiteSpace=wrap;container=1;dropTarget=0;collapsible=0;recursiveResize=0;outlineConnect=0;portConstraint=eastwest;newEdgeStyle={&quot;edgeStyle&quot;:&quot;elbowEdgeStyle&quot;,&quot;elbow&quot;:&quot;vertical&quot;,&quot;curved&quot;:0,&quot;rounded&quot;:0};size=65;" vertex="1" parent="1">
          <mxGeometry x="220" y="20" width="150" height="540" as="geometry" />
        </mxCell>
        <mxCell id="BVc9t5YBlYApv27JJ1SE-3" value="System" style="shape=umlLifeline;perimeter=lifelinePerimeter;whiteSpace=wrap;container=1;dropTarget=0;collapsible=0;recursiveResize=0;outlineConnect=0;portConstraint=eastwest;newEdgeStyle={&quot;edgeStyle&quot;:&quot;elbowEdgeStyle&quot;,&quot;elbow&quot;:&quot;vertical&quot;,&quot;curved&quot;:0,&quot;rounded&quot;:0};size=65;" vertex="1" parent="1">
          <mxGeometry x="420" y="20" width="150" height="540" as="geometry" />
        </mxCell>
        <mxCell id="BVc9t5YBlYApv27JJ1SE-4" value="" style="points=[];perimeter=orthogonalPerimeter;outlineConnect=0;targetShapes=umlLifeline;portConstraint=eastwest;newEdgeStyle={&quot;edgeStyle&quot;:&quot;elbowEdgeStyle&quot;,&quot;elbow&quot;:&quot;vertical&quot;,&quot;curved&quot;:0,&quot;rounded&quot;:0}" vertex="1" parent="BVc9t5YBlYApv27JJ1SE-3">
          <mxGeometry x="70" y="106" width="10" height="402" as="geometry" />
        </mxCell>
        <mxCell id="BVc9t5YBlYApv27JJ1SE-5" value="loop" style="shape=umlFrame;pointerEvents=0;dropTarget=0;strokeColor=#B3B3B3;height=20;width=40" vertex="1" parent="1">
          <mxGeometry x="284" y="147" width="231" height="150" as="geometry" />
        </mxCell>
        <mxCell id="BVc9t5YBlYApv27JJ1SE-6" value="[每分钟]" style="text;strokeColor=none;fillColor=none;align=center;verticalAlign=middle;whiteSpace=wrap;" vertex="1" parent="BVc9t5YBlYApv27JJ1SE-5">
          <mxGeometry x="40" width="191" height="20" as="geometry" />
        </mxCell>
        <mxCell id="BVc9t5YBlYApv27JJ1SE-7" value="alt" style="shape=umlFrame;pointerEvents=0;dropTarget=0;strokeColor=#B3B3B3;height=20;width=30" vertex="1" parent="1">
          <mxGeometry x="84" y="307" width="506" height="180" as="geometry" />
        </mxCell>
        <mxCell id="BVc9t5YBlYApv27JJ1SE-8" value="[信号丢失&gt;3分钟]" style="text;strokeColor=none;fillColor=none;align=center;verticalAlign=middle;whiteSpace=wrap;" vertex="1" parent="BVc9t5YBlYApv27JJ1SE-7">
          <mxGeometry x="30" width="476" height="20" as="geometry" />
        </mxCell>
        <mxCell id="BVc9t5YBlYApv27JJ1SE-9" value="启动监控指令" style="verticalAlign=bottom;edgeStyle=elbowEdgeStyle;elbow=vertical;curved=0;rounded=0;endArrow=block;" edge="1" parent="1" source="BVc9t5YBlYApv27JJ1SE-1" target="BVc9t5YBlYApv27JJ1SE-4">
          <mxGeometry relative="1" as="geometry">
            <Array as="points">
              <mxPoint x="302" y="127" />
            </Array>
          </mxGeometry>
        </mxCell>
        <mxCell id="BVc9t5YBlYApv27JJ1SE-10" value="心跳检测" style="verticalAlign=bottom;edgeStyle=elbowEdgeStyle;elbow=vertical;curved=0;rounded=0;endArrow=block;" edge="1" parent="1" source="BVc9t5YBlYApv27JJ1SE-4" target="BVc9t5YBlYApv27JJ1SE-2">
          <mxGeometry relative="1" as="geometry">
            <Array as="points">
              <mxPoint x="405" y="225" />
            </Array>
          </mxGeometry>
        </mxCell>
        <mxCell id="BVc9t5YBlYApv27JJ1SE-11" value="状态响应" style="verticalAlign=bottom;edgeStyle=elbowEdgeStyle;elbow=vertical;curved=0;rounded=0;dashed=1;dashPattern=2 3;endArrow=block;" edge="1" parent="1" source="BVc9t5YBlYApv27JJ1SE-2" target="BVc9t5YBlYApv27JJ1SE-4">
          <mxGeometry relative="1" as="geometry">
            <Array as="points">
              <mxPoint x="402" y="277" />
            </Array>
          </mxGeometry>
        </mxCell>
        <mxCell id="BVc9t5YBlYApv27JJ1SE-12" value="标记为&quot;故障&quot;" style="curved=1;endArrow=block;rounded=0;" edge="1" parent="1" source="BVc9t5YBlYApv27JJ1SE-4" target="BVc9t5YBlYApv27JJ1SE-4">
          <mxGeometry relative="1" as="geometry">
            <Array as="points">
              <mxPoint x="555" y="385" />
              <mxPoint x="555" y="415" />
            </Array>
          </mxGeometry>
        </mxCell>
        <mxCell id="BVc9t5YBlYApv27JJ1SE-13" value="触发处理充电桩故障" style="verticalAlign=bottom;edgeStyle=elbowEdgeStyle;elbow=vertical;curved=0;rounded=0;endArrow=block;" edge="1" parent="1" source="BVc9t5YBlYApv27JJ1SE-4" target="BVc9t5YBlYApv27JJ1SE-1">
          <mxGeometry relative="1" as="geometry">
            <Array as="points">
              <mxPoint x="305" y="467" />
            </Array>
          </mxGeometry>
        </mxCell>
        <mxCell id="BVc9t5YBlYApv27JJ1SE-14" value="监控终止确认" style="verticalAlign=bottom;edgeStyle=elbowEdgeStyle;elbow=vertical;curved=0;rounded=0;dashed=1;dashPattern=2 3;endArrow=block;" edge="1" parent="1" source="BVc9t5YBlYApv27JJ1SE-4" target="BVc9t5YBlYApv27JJ1SE-1">
          <mxGeometry relative="1" as="geometry">
            <Array as="points">
              <mxPoint x="305" y="529" />
            </Array>
          </mxGeometry>
        </mxCell>
      </root>
    </mxGraphModel>
  </diagram>
</mxfile>
